<svg xmlns="http://www.w3.org/2000/svg" width="1200" height="900" viewBox="0 0 1200 900" role="img" aria-labelledby="title desc">
  <title id="title">Solar Horizon in Great Falls, VA</title>
  <desc id="desc">Net-zero modern home with solar panels and a wind turbine on a landscaped estate.</desc>
  <defs>
    <linearGradient id="sky" x1="0" y1="0" x2="0" y2="1">
      <stop offset="0%" stop-color="#eef3f8" />
      <stop offset="100%" stop-color="#c6d1dc" />
    </linearGradient>
    <linearGradient id="ground" x1="0" y1="0" x2="1" y2="0">
      <stop offset="0%" stop-color="#a9b6a7" />
      <stop offset="100%" stop-color="#8fa08f" />
    </linearGradient>
    <linearGradient id="glass" x1="0" y1="0" x2="1" y2="1">
      <stop offset="0%" stop-color="#dfe8f1" stop-opacity="0.9" />
      <stop offset="100%" stop-color="#8aa0b7" stop-opacity="0.6" />
    </linearGradient>
  </defs>
  <rect width="1200" height="900" fill="url(#sky)" />
  <rect y="640" width="1200" height="260" fill="url(#ground)" />

  <rect x="150" y="390" width="900" height="240" fill="#f6f6f4" />
  <rect x="150" y="390" width="900" height="16" fill="#111214" />
  <rect x="210" y="420" width="420" height="180" fill="url(#glass)" stroke="#15181b" stroke-width="6" />
  <rect x="650" y="430" width="320" height="160" fill="#e7eaee" stroke="#15181b" stroke-width="5" />

  <rect x="240" y="360" width="200" height="28" fill="#1b1e22" />
  <rect x="450" y="360" width="200" height="28" fill="#1b1e22" />
  <rect x="245" y="365" width="190" height="18" fill="#27323a" />
  <rect x="455" y="365" width="190" height="18" fill="#27323a" />
  <rect x="255" y="368" width="30" height="12" fill="#5f6b74" />
  <rect x="290" y="368" width="30" height="12" fill="#5f6b74" />
  <rect x="325" y="368" width="30" height="12" fill="#5f6b74" />
  <rect x="360" y="368" width="30" height="12" fill="#5f6b74" />
  <rect x="465" y="368" width="30" height="12" fill="#5f6b74" />
  <rect x="500" y="368" width="30" height="12" fill="#5f6b74" />
  <rect x="535" y="368" width="30" height="12" fill="#5f6b74" />
  <rect x="570" y="368" width="30" height="12" fill="#5f6b74" />

  <rect x="980" y="290" width="8" height="350" fill="#1a1d20" />
  <circle cx="984" cy="280" r="18" fill="#1a1d20" />
  <rect x="982" y="262" width="4" height="40" fill="#1a1d20" />
  <rect x="970" y="250" width="28" height="6" fill="#1a1d20" />
  <rect x="972" y="300" width="24" height="6" fill="#1a1d20" />

  <rect x="220" y="650" width="760" height="18" fill="#1b1e22" />
  <rect x="240" y="668" width="720" height="8" fill="#d1d4d8" />
  <circle cx="150" cy="240" r="56" fill="#f3cf77" opacity="0.7" />
</svg>
